<?xml version="1.0" encoding="UTF-8" standalone="no"?>
<svg
   viewBox="0 0 509.87 121.34"
   version="1.1"
   id="svg14"
   width="509.87"
   height="121.34"
   xmlns="http://www.w3.org/2000/svg"
   xmlns:svg="http://www.w3.org/2000/svg">
  <defs
     id="defs1">
    <style
       id="style1">
      .e5078285-76c1-43c2-a5af-d7a9b8626231 {
        fill: #fff;
      }

      .aa52f037-cfec-49b6-ad05-4ffd1d1534c5 {
        fill: #cfff06;
      }
    </style>
  </defs>
  <g
     id="b36af050-7166-4f4c-aea7-47fc78e64339"
     data-name="Layer 2">
    <g
       id="e998e5b7-496f-4de4-b1e7-1d875b7c7af2"
       data-name="Layer 1">
      <g
         id="g14">
        <g
           id="g10">
          <path
             class="e5078285-76c1-43c2-a5af-d7a9b8626231"
             d="m 423.39,16.26 v 18.65 a 14.53,14.53 0 0 0 -11.8,-5.66 c -9,0 -17.23,6.93 -17.23,19.57 V 49 c 0,12.65 8.4,19.57 17.23,19.57 a 13.89,13.89 0 0 0 11.8,-6.14 v 5.44 h 10.74 V 16.26 Z m 0.14,32.7 c 0,6.29 -4.16,10.46 -9.18,10.46 -5.02,0 -9.25,-4.17 -9.25,-10.42 v -0.14 c 0,-6.35 4.23,-10.45 9.25,-10.45 5.02,0 9.18,4.17 9.18,10.45 z"
             id="path1" />
          <path
             class="e5078285-76c1-43c2-a5af-d7a9b8626231"
             d="m 21.19,58.93 c -5.65,0 -10.31,-2.34 -14.76,-6 L 0,60.62 a 31.44,31.44 0 0 0 21,7.91 c 10.67,0 18.16,-5.51 18.16,-15.33 V 53.06 C 39.16,44.44 33.51,40.84 23.48,38.23 14.91,36 12.79,35 12.79,31.73 v -0.14 c 0,-2.41 2.19,-4.31 6.36,-4.31 4.17,0 8.47,1.83 12.85,4.87 L 37.66,24 A 28.64,28.64 0 0 0 19.29,17.71 C 9.18,17.67 2,23.6 2,32.57 v 0.15 c 0,9.82 6.43,12.57 16.39,15.11 8.26,2.12 10,3.54 10,6.29 v 0.14 c -0.06,2.9 -2.75,4.67 -7.2,4.67 z"
             id="path2" />
          <path
             class="e5078285-76c1-43c2-a5af-d7a9b8626231"
             d="m 66.06,68.68 c 11.79,0 20.55,-8.84 20.55,-19.72 V 48.82 C 86.61,37.94 77.93,29.25 66.2,29.25 54.47,29.25 45.64,38.08 45.64,49 v 0.15 c 0,10.85 8.69,19.53 20.42,19.53 z M 56.24,48.82 c 0,-5.58 3.67,-10.31 9.82,-10.31 C 72,38.51 76,43.38 76,49 v 0.15 c 0,5.58 -3.68,10.31 -9.82,10.31 -5.94,0 -10,-4.87 -10,-10.46 z"
             id="path3" />
          <path
             class="e5078285-76c1-43c2-a5af-d7a9b8626231"
             d="m 94.1,30 v 24.48 c 0,8.68 4.74,14.05 12.86,14.05 5.44,0 8.62,-2.89 11.09,-6.07 v 5.37 h 10.74 V 30 h -10.74 v 21.08 c 0,5.09 -2.61,7.7 -6.71,7.7 -4.1,0 -6.5,-2.61 -6.5,-7.7 V 30 Z"
             id="path4" />
          <path
             class="e5078285-76c1-43c2-a5af-d7a9b8626231"
             d="M 140.17,20.28 V 30 h -4.53 v 9.19 h 4.53 v 17.9 c 0,8.76 4.45,11.37 11,11.37 a 15.8,15.8 0 0 0 8.48,-2.19 v -8.62 a 11,11 0 0 1 -5.3,1.35 c -2.41,0 -3.47,-1.2 -3.47,-3.68 V 39.15 h 8.91 V 30 h -8.89 v -9.72 z"
             id="path5" />
          <path
             class="e5078285-76c1-43c2-a5af-d7a9b8626231"
             d="m 167.72,16.26 v 51.57 h 10.74 V 46.7 c 0,-5.08 2.61,-7.7 6.71,-7.7 4.1,0 6.5,2.62 6.5,7.7 v 21.13 h 10.74 V 43.31 c 0,-8.69 -4.74,-14.06 -12.86,-14.06 -5.44,0 -8.62,2.9 -11.09,6.08 V 16.26 Z"
             id="path6" />
          <polygon
             class="aa52f037-cfec-49b6-ad05-4ffd1d1534c5"
             points="212.86,67.83 248.4,67.83 248.4,57.94 223.74,57.94 223.74,18.37 212.86,18.37 "
             id="polygon6" />
          <polygon
             class="aa52f037-cfec-49b6-ad05-4ffd1d1534c5"
             points="352.11,67.83 352.11,36.39 376.06,67.83 385.31,67.83 385.31,18.37 374.57,18.37 374.57,48.82 351.4,18.37 341.37,18.37 341.37,67.83 "
             id="polygon7" />
          <path
             class="e5078285-76c1-43c2-a5af-d7a9b8626231"
             d="m 461.68,68.68 c 6.86,0 11.94,-2.69 15.48,-7.07 L 471,56.17 c -3,2.76 -5.58,3.89 -9.18,3.89 -4.81,0 -8.2,-2.55 -9.26,-7.42 h 26.35 c 0.07,-1 0.14,-2 0.14,-2.83 0,-10.74 -5.79,-20.56 -18.44,-20.56 -11,0 -18.72,8.91 -18.72,19.71 v 0.15 c 0.01,11.58 8.42,19.57 19.79,19.57 z m -1.06,-30.81 c 4.53,0 7.35,3.25 8,8.06 h -16.19 c 0.85,-4.88 3.74,-8.06 8.19,-8.06 z"
             id="path7" />
          <path
             class="e5078285-76c1-43c2-a5af-d7a9b8626231"
             d="M 497.79,37.59 V 30 h -10.74 v 37.83 h 10.74 v -14 c 0,-9 4.38,-13.35 11.51,-13.35 h 0.57 V 29.25 C 503.51,29 500,32.36 497.79,37.59 Z"
             id="path8" />
          <g
             id="g9">
            <polygon
               class="aa52f037-cfec-49b6-ad05-4ffd1d1534c5"
               points="298.05,46.58 291.23,29.94 284.41,46.58 "
               id="polygon8" />
            <path
               class="aa52f037-cfec-49b6-ad05-4ffd1d1534c5"
               d="m 320.79,0 h -58.68 a 9.84,9.84 0 0 0 -9.84,9.83 V 51.9 c 0,15.28 39.18,69.44 39.18,69.44 0,0 39.17,-54.16 39.17,-69.44 V 9.83 A 9.83,9.83 0 0 0 320.79,0 Z m -14,68.06 -4.69,-11.51 h -21.7 l -4.69,11.51 h -11.53 l 22,-51.68 h 10.41 l 22,51.68 z"
               id="path9" />
          </g>
        </g>
      </g>
    </g>
  </g>
</svg>
